<?xml version="1.0" encoding="UTF-8"?>
<svg version="1.1" xmlns="http://www.w3.org/2000/svg" width="1006" height="1006">
<path d="M0 0 C3.35040028 0.01709076 6.70008475 0.0068884 10.05046082 -0.01032257 C34.54749207 -0.11665021 58.82517069 1.70261419 83.02050781 5.64111328 C83.66207825 5.74404694 84.30364868 5.84698059 84.96466064 5.95303345 C129.62779717 13.16423388 172.90910868 26.54896447 214.02050781 45.39111328 C215.02823242 45.85243652 216.03595703 46.31375977 217.07421875 46.7890625 C239.33286997 57.05613483 260.53725233 68.93320226 281.02050781 82.39111328 C282.02573486 83.05095215 282.02573486 83.05095215 283.05126953 83.72412109 C298.79270407 94.13497792 313.92280279 105.59841047 328.18457031 117.95751953 C330.91268114 120.29858433 333.70309262 122.53397775 336.52050781 124.76611328 C341.47286943 128.78584037 345.92719867 133.1807071 350.38671875 137.7277832 C353.25290521 140.64591821 356.13660159 143.44314145 359.27050781 146.07861328 C363.17745184 149.39334684 366.488273 153.14667115 369.86816406 156.98876953 C371.69076315 159.02306797 373.55471406 160.93545856 375.52050781 162.82861328 C379.16719324 166.41688499 382.31928867 170.34721799 385.52050781 174.33251953 C387.703191 177.00289599 389.94046115 179.59983388 392.2175293 182.18847656 C450.85707886 249.17491697 487.62074569 336.7772901 501.70800781 424.14111328 C501.89854736 425.30344482 502.08908691 426.46577637 502.28540039 427.66333008 C505.93930286 451.50540251 507.53541829 475.26932837 507.41162109 499.37060547 C507.39453033 502.72100575 507.4047327 506.07069022 507.42194366 509.42106628 C507.5282713 533.91809753 505.70900691 558.19577616 501.77050781 582.39111328 C501.66757416 583.03268372 501.5646405 583.67425415 501.45858765 584.33526611 C494.24738722 628.99840264 480.86265662 672.27971415 462.02050781 713.39111328 C461.32852295 714.9027002 461.32852295 714.9027002 460.62255859 716.44482422 C450.35548627 738.70347543 438.47841883 759.9078578 425.02050781 780.39111328 C424.58061523 781.06126465 424.14072266 781.73141602 423.6875 782.421875 C413.27664317 798.16330954 401.81321063 813.29340826 389.45410156 827.55517578 C387.11303676 830.28328661 384.87764334 833.07369809 382.64550781 835.89111328 C378.62578072 840.8434749 374.23091399 845.29780414 369.68383789 849.75732422 C366.76570288 852.62351067 363.96847964 855.50720706 361.33300781 858.64111328 C358.01827425 862.5480573 354.26494995 865.85887847 350.42285156 869.23876953 C348.38855312 871.06136862 346.47616253 872.92531953 344.58300781 874.89111328 C340.99473611 878.53779871 337.0644031 881.68989413 333.07910156 884.89111328 C330.4087251 887.07379647 327.81178722 889.31106662 325.22314453 891.58813477 C258.23670413 950.22768433 170.634331 986.99135115 83.27050781 1001.07861328 C82.10817627 1001.26915283 80.94584473 1001.45969238 79.74829102 1001.65600586 C55.90621858 1005.30990832 32.14229272 1006.90602376 8.04101562 1006.78222656 C4.69061534 1006.7651358 1.34093088 1006.77533817 -2.00944519 1006.79254913 C-26.50647644 1006.89887677 -50.78415507 1005.07961238 -74.97949219 1001.14111328 C-75.62106262 1001.03817963 -76.26263306 1000.93524597 -76.92364502 1000.82919312 C-121.58678155 993.61799269 -164.86809306 980.23326209 -205.97949219 961.39111328 C-206.9872168 960.92979004 -207.99494141 960.4684668 -209.03320312 959.99316406 C-231.29185434 949.72609173 -252.49623671 937.8490243 -272.97949219 924.39111328 C-273.64964355 923.9512207 -274.31979492 923.51132812 -275.01025391 923.05810547 C-290.75168845 912.64724864 -305.88178716 901.1838161 -320.14355469 888.82470703 C-322.87166552 886.48364223 -325.662077 884.24824881 -328.47949219 882.01611328 C-333.4318538 877.99638619 -337.88618305 873.60151946 -342.34570312 869.05444336 C-345.21188958 866.13630835 -348.09558597 863.33908511 -351.22949219 860.70361328 C-355.13643621 857.38887972 -358.44725738 853.63555542 -361.82714844 849.79345703 C-363.64974753 847.75915859 -365.51369844 845.846768 -367.47949219 843.95361328 C-371.12617762 840.36534157 -374.27827304 836.43500857 -377.47949219 832.44970703 C-379.66217537 829.77933057 -381.89944552 827.18239269 -384.17651367 824.59375 C-442.81606324 757.60730959 -479.57973006 670.00493647 -493.66699219 582.64111328 C-493.85753174 581.47878174 -494.04807129 580.3164502 -494.24438477 579.11889648 C-497.89828723 555.27682405 -499.49440267 531.51289819 -499.37060547 507.41162109 C-499.3535147 504.06122081 -499.36371707 500.71153635 -499.38092804 497.36116028 C-499.48725567 472.86412903 -497.66799128 448.5864504 -493.72949219 424.39111328 C-493.62655853 423.74954285 -493.52362488 423.10797241 -493.41757202 422.44696045 C-486.20637159 377.78382392 -472.821641 334.50251241 -453.97949219 293.39111328 C-453.51816895 292.38338867 -453.0568457 291.37566406 -452.58154297 290.33740234 C-442.31447064 268.07875113 -430.43740321 246.87436876 -416.97949219 226.39111328 C-416.53959961 225.72096191 -416.09970703 225.05081055 -415.64648438 224.36035156 C-405.23562754 208.61891702 -393.772195 193.48881831 -381.41308594 179.22705078 C-379.07202114 176.49893995 -376.83662772 173.70852847 -374.60449219 170.89111328 C-370.58476509 165.93875166 -366.18989836 161.48442242 -361.64282227 157.02490234 C-358.72468725 154.15871589 -355.92746402 151.2750195 -353.29199219 148.14111328 C-349.97725863 144.23416926 -346.22393432 140.92334809 -342.38183594 137.54345703 C-340.3475375 135.72085794 -338.43514691 133.85690703 -336.54199219 131.89111328 C-332.95372048 128.24442785 -329.02338748 125.09233243 -325.03808594 121.89111328 C-322.36770948 119.7084301 -319.77077159 117.47115995 -317.18212891 115.1940918 C-250.1956885 56.55454223 -162.59331537 19.79087541 -75.22949219 5.70361328 C-74.06716064 5.51307373 -72.9048291 5.32253418 -71.70727539 5.1262207 C-47.86520296 1.47231824 -24.1012771 -0.1237972 0 0 Z " fill="#313031" transform="translate(498.9794921875,-0.39111328125)"/>
<path d="M0 0 C0.84276981 -0.00367669 1.68553962 -0.00735338 2.55384791 -0.01114148 C5.3886574 -0.02218784 8.22343025 -0.02602386 11.05825806 -0.02983093 C13.08684404 -0.03609512 15.11542888 -0.04274188 17.14401245 -0.04974365 C23.81805622 -0.07080062 30.49210025 -0.08115099 37.16616821 -0.09111023 C39.46495196 -0.09515787 41.76373558 -0.0992748 44.06251907 -0.10346031 C54.86779572 -0.1225195 65.67306553 -0.13674619 76.47835577 -0.14507228 C88.93902772 -0.15483276 101.39952147 -0.18111823 113.86013067 -0.22157317 C123.49683415 -0.25178229 133.13348671 -0.26654591 142.77023661 -0.26985329 C148.52246606 -0.27219929 154.27450529 -0.28110044 160.02668381 -0.30631447 C165.44561839 -0.32968247 170.86423874 -0.33379333 176.28321075 -0.32355309 C178.26443403 -0.32305965 180.24567323 -0.32932283 182.2268486 -0.34310913 C207.10270443 -0.5064213 225.50000737 8.14539806 243.48449707 25.41375732 C245.39786337 27.30663358 247.30254662 29.20595481 249.20083618 31.11372375 C250.26467126 32.17183544 251.32912897 33.22932143 252.39414978 34.28623962 C255.24584095 37.1202097 258.08813517 39.96342068 260.92810202 42.80913424 C263.31343396 45.19758629 265.70338711 47.58138834 268.09328091 49.96527439 C273.73441821 55.59243974 279.36781711 61.22726753 284.99624634 66.86714172 C290.77804936 72.66044237 296.57255388 78.44081025 302.37346923 84.21496814 C307.38152471 89.20079742 312.38170762 94.19442701 317.37573349 99.19430882 C320.34650411 102.16843081 323.32001417 105.13966489 326.30111313 108.10343742 C329.10265315 110.88939738 331.89413861 113.68507089 334.67853355 116.48816299 C335.69449058 117.50777423 336.71377907 118.52407994 337.73682976 119.53657341 C347.901636 129.60454662 357.65262244 141.53043063 358.33023071 156.45967102 C357.54869347 173.58022133 348.59544134 184.47433392 337.42788696 196.36982727 C335.30744285 198.63694872 333.23854348 200.92749249 331.20523071 203.27217102 C325.4795171 209.8683019 319.58888685 216.31711277 313.70523071 222.77217102 C310.29536598 226.5182936 306.93044099 230.29657614 303.60757446 234.11982727 C301.53663585 236.48206275 299.43510224 238.81512955 297.33023071 241.14717102 C294.05950148 244.7714926 290.82853851 248.4260028 287.62319946 252.10810852 C285.65182029 254.35006915 283.64860381 256.56102905 281.64273071 258.77217102 C278.57970366 262.1611621 275.58412811 265.59594762 272.63052368 269.07978821 C267.15592889 275.53718686 261.5093691 281.79147386 255.69961548 287.94917297 C252.7471553 291.08057014 249.85564893 294.23085153 247.08023071 297.52217102 C233.37986155 313.31184648 213.81631937 325.12634935 192.83023071 327.14717102 C190.02084579 327.27860587 187.21731863 327.29089839 184.40518188 327.28761292 C183.19058053 327.2920696 183.19058053 327.2920696 181.95144176 327.29661632 C179.25868362 327.30523556 176.56597027 327.30680575 173.87319946 327.30830383 C171.93428453 327.31293661 169.9953705 327.31796188 168.05645752 327.323349 C162.80449582 327.33642591 157.55254687 327.34290808 152.30057144 327.34735966 C149.01727376 327.35029643 145.73397953 327.35440225 142.45068359 327.35886383 C132.17135924 327.37252287 121.8920428 327.38219879 111.61271 327.38606572 C99.75767379 327.39055052 87.90275265 327.40812471 76.04775143 327.43706632 C66.87386559 327.45868379 57.70001215 327.46876995 48.52610111 327.47010684 C43.05080292 327.4711543 37.57561312 327.47705032 32.1003418 327.49492645 C26.9522472 327.51140944 21.80434252 327.51356149 16.65623093 327.50478745 C14.76966213 327.50401735 12.8830831 327.50835617 10.99654007 327.5182457 C8.41589469 327.53097829 5.83592077 327.52508156 3.25527954 327.5146637 C2.51363147 327.5227201 1.77198339 327.53077651 1.00786114 327.53907704 C-5.11577622 327.48148691 -10.82782727 326.32843091 -15.44711304 322.02607727 C-16.26889038 320.87945618 -16.26889038 320.87945618 -17.10726929 319.70967102 C-17.67316772 318.94783508 -18.23906616 318.18599915 -18.82211304 317.40107727 C-21.05404218 313.66825664 -21.29519778 310.3540566 -21.30119705 306.0545845 C-21.3050382 305.02046881 -21.30887934 303.98635312 -21.31283689 302.92090058 C-21.3119704 301.78628821 -21.31110392 300.65167584 -21.31021118 299.48268127 C-21.3131823 298.2761766 -21.31615343 297.06967193 -21.31921458 295.82660651 C-21.32639506 292.47620724 -21.32907391 289.12585924 -21.32981205 285.77545595 C-21.33166335 282.16251838 -21.33921107 278.54959191 -21.34594727 274.93666077 C-21.35952807 267.03578754 -21.36555491 259.1349194 -21.36995792 251.23403645 C-21.37272077 246.30045527 -21.3769582 241.36687605 -21.3814621 236.4332962 C-21.39365442 222.77297209 -21.40395382 209.11264954 -21.40733719 195.4523201 C-21.40755675 194.57806015 -21.40777632 193.7038002 -21.40800254 192.80304752 C-21.40832996 191.48852473 -21.40832996 191.48852473 -21.40866399 190.14744592 C-21.40910745 188.37163814 -21.40955402 186.59583036 -21.41000366 184.82002258 C-21.41022509 183.9391611 -21.41044652 183.05829962 -21.41067466 182.15074536 C-21.41462251 167.87829017 -21.43207627 153.60588605 -21.45536318 139.33345059 C-21.47907989 124.67928247 -21.49153918 110.02513998 -21.49270511 95.37095237 C-21.49362169 87.14352115 -21.49936971 78.91615647 -21.51752472 70.68874359 C-21.53293001 63.68276162 -21.53804365 56.67686674 -21.52978662 49.67087105 C-21.52588162 46.09721629 -21.52680222 42.5237369 -21.54084396 38.95010376 C-21.55593787 35.07319207 -21.54771187 31.19652676 -21.53726196 27.31959534 C-21.54531837 26.19390585 -21.55337477 25.06821637 -21.56167531 23.90841508 C-21.51774505 16.94509323 -21.10319012 10.66060915 -16.45101929 5.08857727 C-15.86320679 4.63353821 -15.27539429 4.17849915 -14.66976929 3.70967102 C-13.78805054 3.00004211 -13.78805054 3.00004211 -12.88851929 2.27607727 C-8.85069497 -0.37603915 -4.63537754 -0.00107942 0 0 Z " fill="#E6E6E6" transform="translate(224.16976928710938,348.8528289794922)"/>
<path d="M0 0 C1.9891591 -0.00337286 3.97831618 -0.00822939 5.96746826 -0.01449585 C10.11978942 -0.02183809 14.27157013 -0.01124276 18.42382812 0.01220703 C23.73918001 0.04076774 29.05327351 0.02422778 34.36857986 -0.00565529 C38.46935488 -0.02373644 42.5698321 -0.01796773 46.67061615 -0.00501633 C48.63058371 -0.00168845 50.59057856 -0.0057476 52.55051422 -0.01741409 C55.28863593 -0.03014462 58.02472473 -0.01071914 60.76269531 0.01708984 C61.96912186 0.00190811 61.96912186 0.00190811 63.19992065 -0.01358032 C68.97070333 0.09474904 71.51483819 1.51800935 75.546875 5.6640625 C77.09135131 8.75301512 76.81771649 11.25507098 76.546875 14.6640625 C75.03515625 17.2265625 75.03515625 17.2265625 72.859375 19.6640625 C72.03695312 20.60636719 71.21453125 21.54867188 70.3671875 22.51953125 C69.91375977 23.02403809 69.46033203 23.52854492 68.99316406 24.04833984 C67.46691919 25.75338518 65.96948757 27.48056713 64.4765625 29.21484375 C62.28341138 31.76171815 60.08301388 34.30193606 57.875 36.8359375 C54.72745885 40.45140579 51.60155248 44.08490428 48.484375 47.7265625 C47.99275879 48.30067871 47.50114258 48.87479492 46.99462891 49.46630859 C45.51169251 51.19859258 44.02920173 52.9312568 42.546875 54.6640625 C36.41991646 61.82633549 30.28369994 68.98004525 24.109375 76.1015625 C23.57223877 76.72119873 23.03510254 77.34083496 22.48168945 77.97924805 C19.70924274 81.17586709 16.93303397 84.36914287 14.15234375 87.55859375 C9.31108367 93.11819366 4.49413418 98.67966802 -0.140625 104.4140625 C-3.91639066 109.08027381 -7.91664679 113.494597 -11.98046875 117.91015625 C-15.19901041 121.49478795 -18.21002774 125.22807576 -21.234375 128.9765625 C-23.42587768 131.6310587 -25.69560183 134.18407135 -28.015625 136.7265625 C-37.46090899 146.03257325 -37.46090899 146.03257325 -41.765625 157.8515625 C-41.80300781 158.58761719 -41.84039063 159.32367188 -41.87890625 160.08203125 C-40.77152613 166.7974281 -35.62855521 172.16024966 -31.390625 177.2265625 C-30.22036835 178.64502059 -29.05111357 180.06430578 -27.8828125 181.484375 C-27.30241211 182.18852539 -26.72201172 182.89267578 -26.12402344 183.61816406 C-23.70781567 186.57664172 -21.35983346 189.58595666 -19.015625 192.6015625 C-13.79847138 199.28882215 -8.40751625 205.82641825 -3.00390625 212.36328125 C4.89065207 221.91485536 12.69240562 231.53401623 20.31323242 241.30541992 C24.56408016 246.7329305 28.95800068 252.03832967 33.35522461 257.34741211 C37.44106149 262.29142558 41.42992924 267.29976347 45.36767578 272.36206055 C48.39542419 276.23892124 51.49693695 280.0465176 54.64013672 283.83032227 C57.01731074 286.69381046 59.37812613 289.57045094 61.734375 292.45117188 C62.96465799 293.95323074 64.19918518 295.45182138 65.4375 296.94726562 C67.28615519 299.19124274 69.1065791 301.45555954 70.921875 303.7265625 C71.77048096 304.74327026 71.77048096 304.74327026 72.63623047 305.78051758 C76.43054187 310.60213314 77.24279043 313.53740515 76.546875 319.6640625 C75.12119141 323.43793082 74.02373512 324.41809687 70.42076111 326.27651978 C66.52274866 327.86140357 62.79849367 328.08838301 58.62719727 328.05224609 C57.48914139 328.06013153 57.48914139 328.06013153 56.32809448 328.06817627 C53.83960907 328.08129534 51.35177229 328.07266642 48.86328125 328.0625 C47.12125019 328.06452328 45.37921995 328.06743683 43.63719177 328.07119751 C39.99331567 328.07561008 36.34966084 328.06922509 32.70581055 328.05517578 C28.05109539 328.03809724 23.39689977 328.04792333 18.74220371 328.06589317 C15.14666379 328.07677082 11.55124556 328.07326625 7.95570183 328.0655098 C6.24021276 328.06351812 4.5247124 328.06593054 2.80923653 328.07294846 C0.40451222 328.08062743 -1.9993892 328.06886929 -4.40405273 328.05224609 C-5.10300156 328.05831879 -5.80195038 328.06439148 -6.52207947 328.07064819 C-14.47214182 327.96960643 -21.59551231 325.05956076 -27.453125 319.6640625 C-29.72924491 317.09746634 -31.86947726 314.45350078 -33.99609375 311.76171875 C-36.60046905 308.47830125 -39.29354797 305.28709156 -42.015625 302.1015625 C-45.90594224 297.52838111 -49.69913217 292.89256775 -53.4296875 288.1875 C-56.13433916 284.81451743 -58.90699714 281.50017855 -61.6809082 278.18408203 C-65.12417725 274.06577774 -68.52783648 269.91670477 -71.921875 265.7578125 C-74.41142047 262.7150347 -76.91075646 259.6805713 -79.41235352 256.64770508 C-85.80465974 248.89763293 -92.15949526 241.11840596 -98.48828125 233.31640625 C-102.46092269 228.41948134 -106.45650348 223.54142098 -110.453125 218.6640625 C-111.95326781 216.83084602 -113.45326582 214.99751104 -114.953125 213.1640625 C-115.695625 212.2565625 -116.438125 211.3490625 -117.203125 210.4140625 C-132.953125 191.1640625 -132.953125 191.1640625 -135.1875 188.42578125 C-136.73002169 186.54550051 -138.28253302 184.6733807 -139.84375 182.80859375 C-152.53203226 167.57845362 -152.53203226 167.57845362 -152.765625 157.9765625 C-152.80300781 156.98269531 -152.84039063 155.98882812 -152.87890625 154.96484375 C-151.90470327 147.41253626 -147.43492006 142.02052417 -142.453125 136.5390625 C-141.29123615 135.22954852 -140.12978802 133.91964339 -138.96875 132.609375 C-138.38287109 131.95356445 -137.79699219 131.29775391 -137.19335938 130.62207031 C-134.49327131 127.58409243 -131.84588041 124.50190906 -129.203125 121.4140625 C-128.70707764 120.8360791 -128.21103027 120.2580957 -127.69995117 119.66259766 C-124.66936791 116.12095906 -121.70060941 112.53574171 -118.765625 108.9140625 C-115.21044596 104.53254455 -111.48542963 100.34695569 -107.6875 96.17578125 C-105.45177967 93.66255018 -103.31934818 91.09094771 -101.203125 88.4765625 C-97.04227731 83.33711822 -92.73578011 78.34080098 -88.39379883 73.35498047 C-84.86152202 69.29622646 -81.35899294 65.21504687 -77.890625 61.1015625 C-62.68775417 43.08488535 -62.68775417 43.08488535 -55.765625 35.4765625 C-52.78948275 32.19640572 -49.93303257 28.85202666 -47.140625 25.4140625 C-46.40070313 24.50914062 -45.66078125 23.60421875 -44.8984375 22.671875 C-43.60830571 21.08497168 -42.32017315 19.49632296 -41.04980469 17.89355469 C-39.55471929 16.01162212 -38.03680408 14.14993657 -36.515625 12.2890625 C-36.0621167 11.70608398 -35.6086084 11.12310547 -35.14135742 10.52246094 C-25.73203232 -0.84011366 -13.57009672 -0.08116235 0 0 Z " fill="#E6E6E6" transform="translate(761.453125,348.3359375)"/>
<path d="M0 0 C0.96163055 -0.00540298 1.92326111 -0.01080597 2.91403198 -0.01637268 C6.0904629 -0.02887072 9.26598904 -0.01235637 12.44238281 0.00561523 C14.65570117 0.00546022 16.86901979 0.00397086 19.08233643 0.00120544 C23.72265617 -0.00017921 28.36266711 0.01238697 33.00292969 0.03515625 C38.93552689 0.06347438 44.86760843 0.0608223 50.80024338 0.04806614 C55.37290811 0.04109058 59.94545489 0.04892082 64.51810455 0.06132317 C66.70445553 0.0658241 68.89081924 0.06618639 71.07717133 0.06225777 C74.14285436 0.0593289 77.20784253 0.07593512 80.2734375 0.09765625 C81.16829865 0.0931546 82.06315979 0.08865295 82.98513794 0.08401489 C104.65864196 0.33759136 118.57365716 18.5111969 132.71899414 32.69482422 C135.08464971 35.06585461 137.45562295 37.4314732 139.82714844 39.79663086 C141.35416198 41.32430502 142.88086538 42.85228927 144.40722656 44.38061523 C145.1053093 45.07667374 145.80339203 45.77273224 146.52262878 46.48988342 C151.01212516 51.00056737 155.25379567 55.67090797 159.39550781 60.50170898 C160.13800781 61.34733398 160.88050781 62.19295898 161.64550781 63.06420898 C166.73047097 70.14683625 167.15240708 76.19421513 166.13769531 84.65014648 C163.33172119 96.63121061 149.93491012 107.19142417 141.73632812 115.8203125 C138.07593114 119.67307418 134.52869452 123.60018081 131.04516602 127.61352539 C128.70871848 130.28780174 126.30540658 132.89334796 123.89550781 135.50170898 C120.78849385 138.86561454 117.72941351 142.25607156 114.77050781 145.75170898 C112.32015673 148.54545844 109.77859067 151.19255179 107.08300781 153.75170898 C106.09880859 154.68756836 106.09880859 154.68756836 105.09472656 155.64233398 C97.87803776 160.61359863 90.6334318 162.09815388 82.00805664 162.05102539 C81.02297623 162.06124725 80.03789581 162.07146912 79.02296448 162.08200073 C75.79923542 162.10957652 72.57637127 162.10789765 69.35253906 162.10327148 C67.09673245 162.11105408 64.84092875 162.11972521 62.58512878 162.12924194 C57.87216659 162.14411732 53.15950424 162.1436174 48.4465332 162.13305664 C42.41379777 162.12143857 36.38228471 162.15541958 30.34975147 162.20174599 C25.69737099 162.23122742 21.04528533 162.2329639 16.39282799 162.22672653 C14.16851049 162.22775149 11.94417618 162.23819963 9.71994972 162.25835037 C6.61074998 162.28307692 3.50393798 162.26950637 0.39477539 162.24633789 C-0.51812256 162.26162537 -1.43102051 162.27691284 -2.37158203 162.29266357 C-8.09567386 162.19856965 -11.14063618 161.01908218 -15.32712269 157.08099937 C-17.91539851 153.88095496 -17.73373356 150.6815278 -17.74493408 146.74575806 C-17.7534993 144.94557472 -17.7534993 144.94557472 -17.76223755 143.10902405 C-17.76335541 141.79050949 -17.76447327 140.47199493 -17.765625 139.11352539 C-17.77025379 137.71234507 -17.77527853 136.311166 -17.78067017 134.9099884 C-17.7937894 131.10210101 -17.80023807 127.29423125 -17.80468082 123.48632479 C-17.80761202 121.10746174 -17.8117169 118.72860351 -17.816185 116.34974289 C-17.82985802 108.9072095 -17.83952591 101.46468713 -17.84338689 94.02214205 C-17.84786878 85.42991589 -17.86542351 76.83784873 -17.89438748 68.24567091 C-17.91599828 61.60439497 -17.92609083 54.96316378 -17.92742801 48.32185304 C-17.92847637 44.35506668 -17.93439093 40.38842981 -17.95224762 36.42168045 C-17.96871822 32.69029864 -17.97088887 28.95917886 -17.96210861 25.22777367 C-17.96097034 23.20698011 -17.97469509 21.18619528 -17.98886108 19.16545105 C-17.98329193 17.95968918 -17.97772278 16.75392731 -17.97198486 15.5116272 C-17.97345142 14.46560144 -17.97491798 13.41957569 -17.97642899 12.34185219 C-17.40827106 8.00334658 -15.42043394 5.39346005 -12.51727295 2.2205658 C-8.33885915 -0.24515189 -4.7700136 -0.05107252 0 0 Z " fill="#313131" transform="translate(305.6044921875,431.498291015625)"/>
<path d="M0 0 C4.23220088 3.31869304 7.36983358 7.87044383 10.68457031 12.05761719 C13.05377678 14.99318185 15.53244104 17.83461652 18 20.6875 C22.35363721 25.7403515 26.63372224 30.84325215 30.8359375 36.0234375 C32.35257583 37.89049046 33.87952544 39.74919252 35.4140625 41.6015625 C37.63075604 44.28036804 39.8215766 46.97754129 42 49.6875 C42.47953125 50.26242187 42.9590625 50.83734375 43.453125 51.4296875 C45.79589762 54.48189127 46.91605679 57.55585235 46.6953125 61.43359375 C45.05789667 66.74139674 40.68810015 70.69072768 37 74.6875 C36.06568102 75.71679007 35.13209547 76.74674634 34.19921875 77.77734375 C32.32669875 79.83653241 30.443259 81.88492582 28.55078125 83.92578125 C24.30913083 88.51819602 20.22606018 93.2366639 16.1875 98.0078125 C13.15118547 101.59072133 10.08614224 105.14745019 7 108.6875 C6.26265625 109.53699219 5.5253125 110.38648438 4.765625 111.26171875 C4.12109375 111.95910156 3.4765625 112.65648437 2.8125 113.375 C2.01779297 114.24705078 2.01779297 114.24705078 1.20703125 115.13671875 C-4.82696683 119.37653687 -11.82213634 120.13152558 -19.00463867 120.07568359 C-19.85462936 120.08094055 -20.70462006 120.08619751 -21.58036804 120.09161377 C-24.35976115 120.1047022 -27.13857093 120.09611802 -29.91796875 120.0859375 C-31.86371469 120.08796088 -33.80945989 120.09087452 -35.75520325 120.09463501 C-39.81921661 120.09904275 -43.88303132 120.09267526 -47.94702148 120.07861328 C-53.14890621 120.06148807 -58.35032764 120.07139354 -63.55219555 120.08933067 C-67.56455465 120.10018123 -71.57680421 120.09671691 -75.58916664 120.0889473 C-77.50726693 120.08695059 -79.42537725 120.08938593 -81.34346581 120.09638596 C-84.02375977 120.10402517 -86.70330647 120.09236329 -89.38354492 120.07568359 C-90.17069885 120.08175629 -90.95785278 120.08782898 -91.76885986 120.09408569 C-97.40098821 120.02932333 -101.62380172 118.90528506 -105.875 114.9375 C-107.50340357 111.68069286 -107.37833086 109.28164313 -107 105.6875 C-105.07719918 101.99026263 -102.70870946 99.09934275 -99.875 96.0625 C-96.72442245 92.62872447 -93.71750012 89.14346744 -90.8125 85.5 C-86.50658352 80.16850621 -81.86538153 75.21713907 -77.16015625 70.2421875 C-72.96046228 65.77887637 -69.04165216 61.16385522 -65.21484375 56.375 C-61.8182406 52.25354856 -58.17851013 48.36652949 -54.55078125 44.44921875 C-50.36019455 39.91209043 -46.32538522 35.25045149 -42.328125 30.54296875 C-36.71346387 23.94113481 -31.01741554 17.44953323 -25.09912109 11.11743164 C-22.45843472 8.28850268 -19.89982808 5.42269281 -17.4375 2.4375 C-12.936125 -2.64097436 -5.99697148 -2.62367502 0 0 Z " fill="#E6E6E6" transform="translate(603,556.3125)"/>
<path d="M0 0 C3.76878586 1.55799693 6.11271145 3.909366 8.9375 6.8125 C9.77152344 7.66457031 10.60554687 8.51664062 11.46484375 9.39453125 C12.71974609 10.68423828 12.71974609 10.68423828 14 12 C15.66502634 13.66830538 17.33201006 15.33465766 19 17 C20.07667339 18.07648416 21.15324624 19.15306887 22.22973633 20.22973633 C22.80996048 20.80996048 23.39018463 21.39018463 23.98799133 21.98799133 C31.99199422 29.99199422 39.99599711 37.99599711 48 46 C47.34 46.66 46.68 47.32 46 48 C39.9964873 42.04275371 33.99833953 36.08017966 28.0070343 30.11065865 C25.225096 27.33917374 22.44132118 24.56958641 19.65332031 21.80419922 C16.964644 19.13719592 14.28083114 16.46538804 11.60037231 13.7901268 C10.57501238 12.76847261 9.54788898 11.74858522 8.51901245 10.73047256 C7.08228765 9.30818854 5.65229615 7.87911243 4.22265625 6.44970703 C3.40547119 5.6369632 2.58828613 4.82421936 1.74633789 3.98684692 C0 2 0 2 0 0 Z " fill="#363737" transform="translate(507,413)"/>
<path d="M0 0 C5.79835896 4.81437438 11.12281785 9.99248432 16.43359375 15.3359375 C17.31153091 16.21528961 18.18946808 17.09464172 19.0940094 18.00064087 C21.87754412 20.78974058 24.65756769 23.58231018 27.4375 26.375 C29.33216665 28.2752542 31.2275963 30.17474653 33.12304688 32.07421875 C37.75135161 36.71350604 42.37678421 41.35564167 47 46 C46.34 46.66 45.68 47.32 45 48 C44.41114014 47.33822754 43.82228027 46.67645508 43.21557617 45.99462891 C37.47847209 39.63557144 31.56750598 33.49411567 25.48828125 27.4609375 C24.74351532 26.7216803 23.99874939 25.9824231 23.23141479 25.22076416 C20.13220074 22.14925161 17.02917468 19.08164665 13.92211914 16.01806641 C11.6273829 13.75330975 9.33872804 11.48254983 7.05078125 9.2109375 C6.34158035 8.51519623 5.63237946 7.81945496 4.90168762 7.10263062 C4.25648666 6.46080841 3.61128571 5.81898621 2.9465332 5.15771484 C2.37570511 4.59434418 1.80487701 4.03097351 1.2167511 3.45053101 C0 2 0 2 0 0 Z " fill="#F2F2F2" transform="translate(415,440)"/>
<path d="M0 0 C4.32504836 1.65863505 7.09418825 4.871041 10.25 8.125 C11.08144531 8.96998047 11.08144531 8.96998047 11.9296875 9.83203125 C13.29104485 11.21686028 14.64614859 12.60783204 16 14 C15.01 15.485 15.01 15.485 14 17 C12.22600373 15.25311063 10.45577447 13.50266549 8.6875 11.75 C8.18798828 11.25886719 7.68847656 10.76773437 7.17382812 10.26171875 C4.55096096 7.65622156 2.0161702 5.11026939 0 2 C0 1.34 0 0.68 0 0 Z " fill="#3A3A3A" transform="translate(433,461)"/>
<path d="M0 0 C3.68069887 1.53643852 5.98775204 3.78150945 8.75 6.625 C9.54921875 7.44226563 10.3484375 8.25953125 11.171875 9.1015625 C12.07679688 10.04128906 12.07679688 10.04128906 13 11 C12.67 11.66 12.34 12.32 12 13 C8.31930113 11.46356148 6.01224796 9.21849055 3.25 6.375 C2.45078125 5.55773437 1.6515625 4.74046875 0.828125 3.8984375 C0.22484375 3.27195312 -0.3784375 2.64546875 -1 2 C-0.67 1.34 -0.34 0.68 0 0 Z " fill="#3A393A" transform="translate(414,442)"/>
<path d="M0 0 C0.33 0.66 0.66 1.32 1 2 C0.34 2 -0.32 2 -1 2 C-1.25007813 2.59167969 -1.50015625 3.18335938 -1.7578125 3.79296875 C-3.16912841 6.30049545 -4.59268992 7.57708309 -6.875 9.3125 C-7.55304688 9.84488281 -8.23109375 10.37726562 -8.9296875 10.92578125 C-11 12 -11 12 -13.2578125 11.66796875 C-13.83273437 11.44753906 -14.40765625 11.22710938 -15 11 C-14.46890625 10.61328125 -13.9378125 10.2265625 -13.390625 9.828125 C-10.32106866 7.56516741 -7.38855691 5.38855691 -4.6875 2.6875 C-3 1 -3 1 0 0 Z " fill="#DEDDDE" transform="translate(421,578)"/>
<path d="M0 0 C0.33 0 0.66 0 1 0 C1.46557346 3.18141867 1.50963377 5.25343123 -0.3359375 7.95703125 C-1.84258024 9.6935608 -3.37936464 11.369718 -5 13 C-5.99 12.34 -6.98 11.68 -8 11 C-7.38511719 10.31164062 -7.38511719 10.31164062 -6.7578125 9.609375 C-6.21898437 8.99578125 -5.68015625 8.3821875 -5.125 7.75 C-4.59132813 7.14671875 -4.05765625 6.5434375 -3.5078125 5.921875 C-2.0202513 4.02581254 -0.99677564 2.18709995 0 0 Z " fill="#3A3A3A" transform="translate(575,527)"/>
<path d="M0 0 C7.21471629 -0.35482211 13.12418702 0.8408662 20 3 C20 3.33 20 3.66 20 4 C13.05514697 4.48452463 6.7009632 2.69287491 0 1 C0 0.67 0 0.34 0 0 Z " fill="#DEDEDE" transform="translate(415,349)"/>
<path d="M0 0 C0 3 0 3 -1.7578125 5.0078125 C-9.57564576 12 -9.57564576 12 -15 12 C-11.78047801 8.50451898 -9.349025 6.73961 -5 5 C-2.22847788 2.47943955 -2.22847788 2.47943955 0 0 Z " fill="#282726" transform="translate(417,578)"/>
<path d="M0 0 C0.99 0.33 1.98 0.66 3 1 C2.07347299 2.17539996 1.13336613 3.34010577 0.1875 4.5 C-0.33457031 5.1496875 -0.85664062 5.799375 -1.39453125 6.46875 C-3 8 -3 8 -6 8 C-2.25 2.25 -2.25 2.25 0 0 Z " fill="#E0DFE0" transform="translate(731,354)"/>
<path d="M0 0 C0.66 0.33 1.32 0.66 2 1 C-0.97 4.96 -0.97 4.96 -4 9 C-4.33 8.01 -4.66 7.02 -5 6 C-3.59554165 3.7363436 -1.8032087 1.9791315 0 0 Z " fill="#E1E0E0" transform="translate(578,567)"/>
<path d="M0 0 C0.66 0.33 1.32 0.66 2 1 C0.25 4.875 0.25 4.875 -2 6 C-2.33 5.01 -2.66 4.02 -3 3 C-2.01 2.01 -1.02 1.02 0 0 Z " fill="#363637" transform="translate(545,563)"/>
<path d="M0 0 C3.36720387 1.39332574 4.9859524 2.9789286 7 6 C4 6 4 6 1.8125 4.125 C0 2 0 2 0 0 Z " fill="#3D3D3E" transform="translate(451,479)"/>
<path d="M0 0 C-1.12073862 0.83905565 -2.24674547 1.67107831 -3.375 2.5 C-4.00148438 2.9640625 -4.62796875 3.428125 -5.2734375 3.90625 C-7 5 -7 5 -9 5 C-8 2 -8 2 -5.625 0.25 C-3 -1 -3 -1 0 0 Z " fill="#D7D8D7" transform="translate(458,659)"/>
<path d="M0 0 C1.22589844 0.01353516 1.22589844 0.01353516 2.4765625 0.02734375 C3.41628906 0.04474609 3.41628906 0.04474609 4.375 0.0625 C4.375 0.3925 4.375 0.7225 4.375 1.0625 C1.075 1.7225 -2.225 2.3825 -5.625 3.0625 C-5.955 2.4025 -6.285 1.7425 -6.625 1.0625 C-4.21954362 -0.14022819 -2.67503047 -0.03821472 0 0 Z " fill="#2A2827" transform="translate(593.625,552.9375)"/>
<path d="M0 0 C1.17219543 0.78345715 2.33763668 1.57702836 3.5 2.375 C4.47453125 3.03628906 4.47453125 3.03628906 5.46875 3.7109375 C5.9740625 4.13632812 6.479375 4.56171875 7 5 C7 5.66 7 6.32 7 7 C4.50638429 5.79618552 2.31856917 4.54571278 0 3 C0 2.01 0 1.02 0 0 Z " fill="#E0E0E1" transform="translate(734,665)"/>
</svg>
